<!DOCTYPE svg PUBLIC "-//W3C//DTD SVG 1.1//EN" "http://www.w3.org/Graphics/SVG/1.1/DTD/svg11.dtd">
<!-- Uploaded to: SVG Repo, www.svgrepo.com, Transformed by: SVG Repo Mixer Tools -->
<svg height="151px" width="151px" version="1.1" id="Layer_1" xmlns="http://www.w3.org/2000/svg" xmlns:xlink="http://www.w3.org/1999/xlink" viewBox="-81.92 -81.92 675.84 675.84" xml:space="preserve" fill="#ffffff">
<g id="SVGRepo_bgCarrier" stroke-width="0">
<rect x="-81.92" y="-81.92" width="675.84" height="675.84" rx="337.92" fill="#e1ca56" strokewidth="0"/>
</g>
<g id="SVGRepo_tracerCarrier" stroke-linecap="round" stroke-linejoin="round"/>
<g id="SVGRepo_iconCarrier"> <g> <path style="fill:#e4ff1a;" d="M412.203,355.797C412.203,442.064,342.268,512,256,512S99.797,442.064,99.797,355.797 S169.732,199.593,256,199.593C306.566,199.593,412.203,233.828,412.203,355.797"/> <path style="fill:#D75A4A;" d="M256,199.593c20.541,0,50.159,5.649,78.102,20.523V8.678H177.898v211.985 C200.895,207.343,227.519,199.593,256,199.593"/> <path style="fill:#ECBA16;" d="M256,199.593l43.39,78.102l86.78-8.678l-52.068,78.102l60.746,78.102l-95.458-8.678L256,512 l-43.39-95.458l-95.458,8.678l60.746-78.102l-52.068-78.102l86.78,8.678L256,199.593z"/> <path style="fill:#e4ff1a;" d="M290.712,347.119c0,19.17-15.542,34.712-34.712,34.712s-34.712-15.542-34.712-34.712 c0-19.17,15.542-34.712,34.712-34.712S290.712,327.949,290.712,347.119"/> <g> <path style="fill:#FFFFFF;" d="M256,147.525c-4.799,0-8.678-3.888-8.678-8.678V8.678C247.322,3.888,251.201,0,256,0 s8.678,3.888,8.678,8.678v130.169C264.678,143.638,260.799,147.525,256,147.525"/> <path style="fill:#FFFFFF;" d="M290.712,130.169c-4.799,0-8.678-3.888-8.678-8.678V8.678c0-4.79,3.879-8.678,8.678-8.678 c4.799,0,8.678,3.888,8.678,8.678v112.814C299.39,126.282,295.511,130.169,290.712,130.169"/> <path style="fill:#FFFFFF;" d="M221.288,130.169c-4.799,0-8.678-3.888-8.678-8.678V8.678c0-4.79,3.879-8.678,8.678-8.678 s8.678,3.888,8.678,8.678v112.814C229.966,126.282,226.087,130.169,221.288,130.169"/> </g> <path style="fill:#D75A4A;" d="M368.814,17.356H143.186c-4.799,0-8.678-3.888-8.678-8.678S138.388,0,143.186,0h225.627 c4.799,0,8.678,3.888,8.678,8.678S373.612,17.356,368.814,17.356"/> </g> </g>
</svg>